<?xml version="1.0" standalone="no"?>
<!DOCTYPE svg PUBLIC "-//W3C//DTD SVG 20010904//EN"
 "http://www.w3.org/TR/2001/REC-SVG-20010904/DTD/svg10.dtd">
<svg version="1.0" xmlns="http://www.w3.org/2000/svg"
 width="953.000000pt" height="953.000000pt" viewBox="0 0 953.000000 953.000000"
 preserveAspectRatio="xMidYMid meet">
<metadata>
Created by potrace 1.11, written by Peter Selinger 2001-2013
</metadata>
<g transform="translate(0.000000,953.000000) scale(0.100000,-0.100000)"
fill="#000000" stroke="none">
<path d="M4624 8964 c-5 -2 -56 -5 -114 -7 -58 -3 -116 -8 -130 -11 -14 -2
-41 -7 -60 -10 -19 -3 -45 -8 -56 -10 -29 -6 -194 -25 -271 -31 -70 -6 -172
-26 -253 -49 -30 -9 -66 -18 -80 -21 -14 -3 -50 -12 -80 -20 -71 -20 -89 -25
-120 -31 -106 -20 -149 -31 -248 -66 -63 -23 -195 -81 -295 -130 -100 -50
-227 -107 -282 -127 -125 -47 -178 -75 -362 -185 -97 -59 -322 -212 -453 -309
-90 -66 -185 -151 -285 -251 -83 -83 -189 -186 -236 -230 -48 -43 -93 -90
-102 -105 -9 -14 -30 -42 -48 -61 -18 -19 -75 -82 -128 -140 -53 -58 -142
-153 -199 -211 -144 -149 -165 -178 -177 -252 -15 -83 -75 -184 -264 -437
-185 -249 -250 -355 -300 -490 -40 -111 -45 -146 -57 -380 -4 -74 -8 -153 -9
-175 -7 -107 -7 -186 -2 -191 12 -12 100 17 136 46 34 27 104 62 181 91 48 17
83 48 135 116 24 32 83 98 131 148 55 57 95 108 109 140 13 27 39 85 59 128
20 43 36 80 36 82 0 1 29 63 63 136 71 150 77 167 112 339 28 140 46 204 69
248 31 59 104 108 286 190 25 11 74 34 110 50 36 16 75 32 87 36 22 7 34 29
78 137 85 215 375 407 683 452 95 15 335 185 555 394 65 62 122 113 126 113 5
0 55 41 112 91 234 205 385 295 611 367 81 26 218 58 283 67 11 1 47 6 80 10
33 4 74 10 90 12 17 2 149 6 295 8 241 3 277 1 395 -20 102 -18 152 -22 230
-18 184 10 414 5 511 -12 16 -3 43 -7 59 -9 17 -2 41 -7 55 -10 14 -3 39 -7
55 -10 125 -19 532 -126 630 -166 11 -5 72 -27 135 -51 63 -23 138 -52 165
-65 28 -12 90 -39 139 -59 50 -19 113 -53 140 -73 36 -27 73 -43 126 -56 92
-22 226 -78 300 -125 30 -19 107 -85 170 -147 79 -77 138 -125 190 -154 168
-95 276 -201 470 -460 107 -144 126 -166 228 -275 41 -43 115 -139 163 -213
49 -73 107 -158 130 -188 51 -69 68 -110 140 -327 80 -242 91 -360 90 -937 0
-446 -11 -650 -38 -740 -9 -30 -17 -57 -18 -60 -1 -3 -13 -42 -28 -88 -36
-110 -37 -193 -3 -227 33 -33 77 -24 145 28 29 23 88 68 130 100 126 96 155
130 214 251 107 219 161 438 160 656 0 57 -13 285 -18 308 -3 20 -13 113 -20
197 -2 33 -7 128 -10 210 -3 83 -7 168 -9 190 -11 112 -17 172 -21 195 -7 39
-19 131 -30 235 -15 137 -19 160 -45 228 -31 83 -101 194 -232 369 -67 89
-142 194 -167 233 -45 71 -104 134 -242 258 -41 38 -87 86 -101 108 -20 31
-135 130 -348 302 -8 7 -85 69 -171 139 -86 69 -194 151 -240 181 -235 152
-685 380 -924 467 -49 18 -157 62 -238 97 -82 36 -192 75 -245 89 -103 26
-104 26 -232 49 -47 8 -96 17 -110 20 -14 3 -38 8 -55 10 -54 10 -140 25 -160
29 -368 70 -406 73 -891 72 -210 0 -386 -1 -390 -2z"/>
<path d="M5037 8064 c-1 -1 -52 -4 -113 -8 -60 -4 -119 -8 -131 -10 -11 -2
-44 -7 -74 -11 -124 -15 -362 -68 -469 -105 -63 -21 -164 -52 -225 -69 -278
-76 -714 -240 -930 -351 -49 -25 -135 -65 -190 -89 -129 -54 -123 -51 -411
-221 -135 -80 -258 -152 -273 -160 -135 -76 -276 -177 -375 -270 -55 -51 -174
-173 -206 -210 -12 -14 -31 -36 -43 -50 -225 -258 -475 -666 -521 -850 -9 -36
-31 -85 -49 -110 -26 -37 -32 -55 -33 -100 0 -30 3 -70 8 -90 4 -19 10 -72 13
-116 5 -86 -11 -157 -44 -200 -146 -191 -152 -205 -200 -399 -28 -114 -34
-142 -50 -260 -9 -71 -6 -284 5 -295 5 -5 41 -12 79 -15 39 -4 88 -10 110 -15
54 -12 185 -7 213 8 22 13 22 15 23 235 1 363 4 378 93 622 35 94 77 217 95
275 82 265 116 362 161 455 148 304 402 574 855 910 230 171 274 200 371 251
89 47 115 64 216 141 92 70 530 276 801 377 143 53 192 64 372 82 28 3 64 7
80 9 17 2 64 7 105 10 41 4 91 9 110 11 47 5 249 5 280 0 14 -3 44 -7 67 -10
303 -39 512 -247 589 -587 6 -26 6 -128 0 -138 -2 -3 -7 -22 -10 -41 -3 -19
-12 -68 -20 -107 -37 -173 -43 -231 -51 -448 -5 -154 -14 -303 -19 -333 -2 -9
-7 -37 -11 -62 -4 -25 -9 -55 -11 -68 -15 -79 -169 -494 -231 -621 -48 -96
-99 -160 -170 -212 -32 -23 -95 -79 -141 -123 -196 -192 -252 -241 -337 -297
-58 -39 -134 -105 -215 -188 -125 -126 -151 -151 -223 -205 -21 -16 -80 -77
-132 -136 -51 -59 -117 -124 -147 -146 -29 -21 -56 -44 -61 -51 -30 -48 -158
-152 -268 -218 -35 -21 -107 -69 -159 -106 -52 -37 -122 -82 -155 -99 -81 -44
-89 -52 -151 -145 -77 -116 -113 -155 -220 -235 -184 -138 -283 -230 -369
-345 -144 -193 -157 -368 -35 -485 76 -73 211 -101 318 -66 57 19 93 51 130
116 52 92 117 160 323 340 35 30 103 97 153 147 125 129 189 175 381 271 70
35 109 63 172 125 45 44 112 101 150 127 47 32 92 76 148 146 169 211 456 465
631 560 95 52 114 67 154 125 19 28 50 60 69 72 l34 21 -7 -95 c-4 -52 -9
-107 -11 -124 -2 -16 -6 -66 -10 -110 -3 -44 -7 -93 -9 -110 -2 -16 -7 -66
-11 -110 -3 -44 -8 -93 -10 -110 -2 -16 -7 -66 -11 -110 -7 -93 -9 -117 -18
-206 -8 -72 -14 -440 -16 -954 -2 -296 -4 -339 -22 -419 -19 -80 -20 -93 -7
-130 11 -31 24 -45 59 -63 105 -54 350 -74 463 -38 81 25 143 83 167 155 24
72 19 209 -12 345 -21 88 -23 123 -22 290 5 563 7 611 25 720 10 61 21 126 24
145 10 66 15 95 20 125 3 17 7 68 10 115 7 113 15 187 25 235 4 22 11 60 14
85 3 25 8 56 10 70 14 79 36 211 41 250 4 25 13 79 21 120 8 41 17 100 20 130
8 86 22 116 76 167 70 66 122 149 154 246 14 45 32 89 39 97 30 37 43 73 52
151 6 52 -7 86 -83 208 -94 153 -134 296 -135 481 0 127 9 279 19 295 4 5 7
114 8 240 0 127 4 246 8 265 49 249 55 305 50 480 -7 276 -14 430 -24 495 -11
71 -56 165 -105 220 -58 65 -125 156 -139 189 -7 17 -16 51 -20 75 -4 24 -11
52 -17 62 -28 52 -252 147 -372 158 -43 4 -79 6 -80 5z"/>
<path d="M6084 4690 c-69 -26 -173 -243 -216 -451 l-11 -56 93 -129 c52 -71
135 -187 184 -258 160 -226 363 -461 652 -750 491 -493 837 -733 999 -692 34
9 120 89 150 141 44 74 50 208 13 284 -12 24 -60 83 -106 130 -47 47 -104 115
-127 151 -58 91 -131 177 -260 306 -60 62 -155 160 -210 220 -97 105 -172 164
-206 164 -9 0 -79 55 -155 121 -77 67 -168 147 -204 178 -62 54 -142 125 -166
146 -6 6 -26 24 -45 40 -19 17 -47 55 -63 85 -41 79 -147 236 -201 298 -55 61
-91 83 -121 72z"/>
<path d="M897 3800 c-32 -10 -87 -31 -124 -46 l-66 -28 6 -101 c3 -55 8 -111
11 -125 3 -14 7 -43 11 -64 3 -22 12 -69 20 -105 7 -36 28 -133 45 -216 62
-299 81 -361 147 -475 17 -30 48 -96 67 -147 42 -106 94 -207 181 -349 116
-190 236 -330 407 -475 272 -232 543 -374 1133 -593 143 -54 274 -104 292
-112 17 -8 35 -14 39 -14 11 0 189 -70 374 -147 243 -101 297 -114 449 -108
98 4 139 1 186 -12 83 -23 276 -22 635 3 78 5 259 6 267 1 8 -5 167 -19 248
-22 67 -2 114 13 210 70 51 30 104 57 118 60 17 5 41 30 73 76 25 38 61 78 78
88 91 57 448 166 669 205 15 3 35 7 45 10 9 3 28 7 42 10 710 129 1754 647
2213 1098 213 210 272 329 390 788 31 118 63 235 72 259 12 35 15 90 16 253 1
115 -1 212 -4 215 -10 10 -118 -59 -216 -137 -118 -94 -225 -206 -250 -263
-19 -41 -143 -335 -214 -507 -43 -106 -90 -187 -166 -288 -57 -74 -225 -247
-286 -294 -16 -12 -39 -31 -49 -40 -11 -10 -68 -52 -128 -94 -311 -218 -704
-409 -1104 -535 -80 -25 -229 -64 -285 -74 -90 -16 -240 -64 -411 -129 -329
-125 -383 -137 -688 -151 -128 -5 -262 -15 -300 -20 -14 -2 -50 -7 -80 -10
-30 -4 -95 -13 -145 -20 -169 -26 -210 -30 -345 -30 -119 0 -210 7 -290 20
-14 2 -47 7 -75 10 -76 8 -126 14 -167 20 -21 3 -55 7 -75 10 -21 3 -49 7 -63
10 -14 3 -41 7 -60 9 -19 3 -46 7 -60 10 -14 3 -63 12 -110 20 -119 21 -139
25 -185 38 -22 5 -47 11 -55 13 -25 5 -143 36 -175 45 -219 68 -517 176 -700
255 -16 7 -59 25 -95 40 -150 64 -304 198 -494 430 -61 75 -145 197 -203 295
-57 96 -150 231 -173 250 -24 20 -133 165 -158 210 -51 91 -106 268 -132 424
-8 46 -35 198 -45 254 -8 43 -24 137 -29 166 -3 17 -17 41 -30 55 -33 32 -125
37 -209 11z"/>
<path d="M290 2474 c0 -5 -10 -20 -22 -34 -89 -98 -91 -101 -84 -145 7 -55 81
-217 106 -233 29 -18 155 -35 231 -30 59 3 73 8 98 32 17 16 34 41 39 55 34
97 -69 261 -206 326 -56 27 -162 46 -162 29z"/>
<path d="M6090 944 c-116 -19 -222 -64 -260 -111 -89 -110 -103 -135 -104
-194 l-1 -59 35 -7 c42 -8 322 -8 365 -1 17 3 48 9 70 13 52 10 154 57 183 84
44 43 53 67 53 140 0 85 -18 124 -68 139 -44 13 -179 12 -273 -4z"/>
</g>
</svg>
